<svg xmlns="http://www.w3.org/2000/svg" viewBox="0 0 24 24" id="ecommerce">
  <defs>
    <linearGradient id="a" x1="3.056" x2="20.944" y1="20.944" y2="3.056" gradientUnits="userSpaceOnUse">
      <stop offset="0" stop-color="#5433ff"></stop>
      <stop offset="1" stop-color="#20bdff"></stop>
    </linearGradient>
  </defs>
  <path fill="url(#a)" d="m2.25,5.25v-.25c0-1.517,1.233-2.75,2.75-2.75h14c1.517,0,2.75,1.233,2.75,2.75v.25H2.25Zm12.75,6.5h-.25v.25c0,.414-.336.75-.75.75s-.75-.336-.75-.75v-.25h-2.5v.25c0,.414-.336.75-.75.75s-.75-.336-.75-.75v-.25h-.25c-.138,0-.25.112-.25.25v4c0,.689.561,1.25,1.25,1.25h4c.689,0,1.25-.561,1.25-1.25v-4c0-.138-.112-.25-.25-.25Zm-3-2c-.403,0-.745.204-.974.5h1.947c-.229-.296-.571-.5-.974-.5Zm9.75-3v12.25c0,1.517-1.233,2.75-2.75,2.75H5c-1.517,0-2.75-1.233-2.75-2.75V6.75h19.5Zm-5,5.25c0-.965-.785-1.75-1.75-1.75h-.367c-.329-1.151-1.378-2-2.633-2s-2.304.849-2.633,2h-.367c-.965,0-1.75.785-1.75,1.75v4c0,1.517,1.233,2.75,2.75,2.75h4c1.517,0,2.75-1.233,2.75-2.75v-4Z"></path>
</svg>
